<?xml version="1.0" encoding="UTF-8"?>
<svg id="Calque_1" data-name="Calque 1" xmlns="http://www.w3.org/2000/svg" viewBox="0 0 51 51">
  <defs>
    <style>
      .cls-1 {
        fill: none;
        stroke: #1a1a1a;
        stroke-miterlimit: 10;
      }
    </style>
  </defs>
  <path class="cls-1" d="M25.5.5c-6.79,0-7.64.03-10.31.15-2.66.12-4.48.54-6.07,1.16-1.64.64-3.04,1.49-4.43,2.88-1.39,1.39-2.25,2.78-2.89,4.43-.62,1.59-1.04,3.41-1.16,6.07-.12,2.67-.15,3.52-.15,10.31s.03,7.64.15,10.31c.12,2.66.54,4.48,1.16,6.07.64,1.64,1.49,3.04,2.88,4.43,1.39,1.39,2.78,2.25,4.43,2.89,1.59.62,3.41,1.04,6.07,1.16,2.67.12,3.52.15,10.31.15s7.64-.03,10.31-.15c2.66-.12,4.48-.54,6.07-1.16,1.64-.64,3.04-1.49,4.43-2.89,1.39-1.39,2.25-2.78,2.89-4.43.61-1.59,1.04-3.41,1.16-6.07.12-2.67.15-3.52.15-10.31s-.03-7.64-.15-10.31c-.13-2.66-.55-4.48-1.16-6.07-.64-1.64-1.5-3.04-2.89-4.43-1.39-1.39-2.78-2.24-4.43-2.88-1.59-.62-3.41-1.04-6.07-1.16-2.67-.12-3.52-.15-10.31-.15h0ZM23.26,5.01c.67,0,1.41,0,2.24,0,6.68,0,7.47.02,10.1.14,2.44.11,3.76.52,4.64.86,1.17.45,2,.99,2.87,1.87.87.87,1.42,1.71,1.87,2.88.34.88.75,2.2.86,4.64.12,2.64.15,3.43.15,10.1s-.03,7.46-.15,10.1c-.11,2.44-.52,3.76-.86,4.64-.45,1.17-1,2-1.87,2.87-.87.88-1.71,1.42-2.87,1.87-.88.34-2.2.75-4.64.86-2.64.12-3.43.15-10.1.15s-7.47-.03-10.1-.15c-2.44-.11-3.76-.52-4.64-.86-1.17-.45-2-.99-2.88-1.87-.87-.87-1.42-1.71-1.87-2.87-.34-.88-.75-2.2-.86-4.64-.12-2.64-.14-3.43-.14-10.1s.02-7.46.14-10.1c.11-2.44.52-3.76.86-4.64.45-1.17,1-2,1.87-2.88.87-.88,1.71-1.42,2.88-1.87.88-.34,2.2-.75,4.64-.86,2.31-.1,3.2-.14,7.86-.14h0ZM38.85,9.16c-1.66,0-3,1.34-3,3s1.34,3,3,3,3-1.34,3-3-1.34-3-3-3h0ZM25.5,12.66c-7.09,0-12.84,5.75-12.84,12.84s5.75,12.84,12.84,12.84,12.84-5.75,12.84-12.84-5.75-12.84-12.84-12.84h0ZM25.5,17.17c4.6,0,8.33,3.73,8.33,8.33s-3.73,8.33-8.33,8.33-8.33-3.73-8.33-8.33,3.73-8.33,8.33-8.33Z"/>
</svg>