<?xml version="1.0" encoding="UTF-8"?>
<svg id="Calque_1" data-name="Calque 1" xmlns="http://www.w3.org/2000/svg" viewBox="0 0 51 51">
  <defs>
    <style>
      .cls-1 {
        fill: none;
        stroke: #1a1a1a;
        stroke-miterlimit: 10;
      }
    </style>
  </defs>
  <path class="cls-1" d="M43.1,43.1h-7.41v-11.6c0-2.77-.05-6.33-3.85-6.33s-4.45,3.01-4.45,6.13v11.8h-7.41v-23.86h7.11v3.26h.1c1.45-2.48,4.15-3.96,7.02-3.85,7.51,0,8.89,4.94,8.89,11.36v13.09s0,0,0,0ZM11.62,15.98c-2.37,0-4.3-1.92-4.3-4.3,0-2.37,1.92-4.3,4.3-4.3,2.37,0,4.3,1.92,4.3,4.3,0,2.37-1.92,4.3-4.3,4.3M15.33,43.1h-7.42v-23.86h7.42v23.86h0ZM46.8.5H4.19c-2.01-.02-3.67,1.59-3.69,3.6v42.78c.02,2.01,1.68,3.63,3.69,3.61h42.61c2.02.02,3.68-1.59,3.7-3.61V4.1c-.03-2.02-1.69-3.63-3.7-3.6"/>
</svg>