<?xml version="1.0" encoding="UTF-8"?>
<svg id="Calque_1" xmlns="http://www.w3.org/2000/svg" version="1.1" viewBox="0 0 800 800">
  <!-- Generator: Adobe Illustrator 30.4.0, SVG Export Plug-In . SVG Version: 2.1.4 Build 226)  -->
  <defs>
    <style>
      .st0 {
        fill: none;
      }

      .st1 {
        fill: #fff;
      }
    </style>
  </defs>
  <path d="M317.69,93.07v298.04c0,137.53-73.79,248.8-165.02,248.8v-314.12c0-128.64,73.82-232.72,165.02-232.72Z"/>
  <path class="st0" d="M119.38,639.91c109.63,0,198.31-111.27,198.31-248.8"/>
  <rect class="st1" x="317.69" y="28.41" width=".5" height="362.69"/>
  <polygon points="524.68 324.63 324.68 324.63 424.68 210.66 524.68 324.63"/>
  <polygon points="421.96 208.04 321.96 322 321.96 94.07 421.96 208.04"/>
  <polygon points="324.68 329.63 524.68 329.63 424.68 443.6 324.68 329.63"/>
  <polygon points="528.2 333.69 528.2 561.63 428.2 447.66 528.2 333.69"/>
  <path d="M698.21,94.07v298.04c0,137.53-73.79,248.8-165.02,248.8v-314.12c0-128.64,73.82-232.72,165.02-232.72Z"/>
</svg>